<?xml version="1.0" standalone="no"?>
<!DOCTYPE svg PUBLIC "-//W3C//DTD SVG 20010904//EN"
 "http://www.w3.org/TR/2001/REC-SVG-20010904/DTD/svg10.dtd">
<svg version="1.0" xmlns="http://www.w3.org/2000/svg"
 width="100.000000pt" height="100.000000pt" viewBox="0 0 100.000000 100.000000"
 preserveAspectRatio="xMidYMid meet">

<g transform="translate(0.000000,100.000000) scale(0.100000,-0.100000)"
fill="#000000" stroke="none">
<path d="M544 982 c-6 -4 -16 -17 -23 -29 -11 -23 -15 -23 -189 -23 -187 0
-202 -3 -202 -45 0 -12 -9 -30 -19 -39 -43 -39 -33 -114 20 -142 32 -16 38
-34 13 -34 -30 0 -95 -44 -116 -78 -29 -48 -39 -209 -14 -247 10 -16 26 -25
42 -25 l25 0 -6 -138 c-7 -147 -4 -163 42 -177 16 -4 29 0 46 18 l24 23 21
-23 c25 -28 42 -29 73 -4 23 19 24 23 21 140 l-4 121 111 0 c61 0 111 -2 111
-4 0 -2 -20 -39 -45 -80 -25 -42 -45 -81 -45 -86 0 -26 20 -3 68 80 29 50 57
90 62 90 6 0 10 -20 10 -45 0 -25 5 -45 10 -45 6 0 10 20 10 45 0 25 4 45 9
45 5 0 32 -40 60 -90 29 -49 57 -90 62 -90 16 0 10 13 -41 98 l-49 82 145 0
c81 0 154 5 165 10 18 10 19 24 19 261 0 236 1 252 20 276 22 29 25 55 10 84
-10 18 -23 19 -188 19 l-178 0 -22 30 c-23 30 -38 36 -58 22z m44 -39 c2 -8
-6 -13 -22 -13 -17 0 -26 5 -26 16 0 19 41 16 48 -3z m377 -68 c0 -28 -2 -30
-45 -33 -60 -4 -78 -22 -22 -22 l42 0 0 -255 0 -255 -322 2 -323 3 -3 98 c-1
53 -1 97 1 97 2 0 19 -8 38 -17 19 -9 62 -19 95 -21 53 -4 65 -1 83 17 41 41
22 72 -52 82 -36 4 -68 16 -89 33 -45 34 -117 66 -150 66 -36 0 -45 18 -15 29
34 13 57 49 57 88 l0 33 220 0 c140 0 220 4 220 10 0 6 -83 10 -228 10 -185 0
-232 3 -248 15 -10 8 -31 15 -46 15 -26 0 -37 18 -21 33 4 4 187 6 407 5 l401
-3 0 -30z m-745 -45 c41 -41 7 -120 -52 -120 -24 0 -68 44 -68 68 0 59 79 93
120 52z m45 -194 c19 -8 56 -30 82 -48 33 -22 64 -34 98 -38 42 -4 50 -8 53
-27 3 -22 0 -23 -65 -23 -55 0 -76 5 -108 25 -22 13 -44 25 -49 25 -5 0 -6
-104 -2 -255 6 -233 5 -256 -10 -262 -40 -15 -49 7 -57 158 -5 79 -11 146 -13
149 -14 13 -24 -34 -25 -115 -1 -142 -10 -189 -35 -193 -41 -6 -43 12 -33 220
6 109 9 219 7 245 -5 82 -23 48 -28 -54 -5 -90 -7 -98 -25 -98 -19 0 -20 7
-20 112 0 105 1 113 25 138 49 53 134 70 205 41z"/>
<path d="M740 830 c0 -5 18 -10 40 -10 22 0 40 5 40 10 0 6 -18 10 -40 10 -22
0 -40 -4 -40 -10z"/>
<path d="M330 375 c0 -17 5 -25 13 -22 6 2 12 12 12 22 0 10 -6 20 -12 23 -8
2 -13 -6 -13 -23z"/>
<path d="M410 375 c0 -14 5 -25 10 -25 6 0 10 11 10 25 0 14 -4 25 -10 25 -5
0 -10 -11 -10 -25z"/>
<path d="M490 375 c0 -14 5 -25 10 -25 6 0 10 11 10 25 0 14 -4 25 -10 25 -5
0 -10 -11 -10 -25z"/>
<path d="M570 375 c0 -14 5 -25 10 -25 6 0 10 11 10 25 0 14 -4 25 -10 25 -5
0 -10 -11 -10 -25z"/>
<path d="M644 385 c-3 -8 -3 -19 1 -25 11 -18 25 -11 25 15 0 27 -17 34 -26
10z"/>
<path d="M720 375 c0 -17 5 -25 13 -22 6 2 12 12 12 22 0 10 -6 20 -12 23 -8
2 -13 -6 -13 -23z"/>
<path d="M800 375 c0 -14 5 -25 10 -25 6 0 10 11 10 25 0 14 -4 25 -10 25 -5
0 -10 -11 -10 -25z"/>
<path d="M880 375 c0 -14 5 -25 10 -25 6 0 10 11 10 25 0 14 -4 25 -10 25 -5
0 -10 -11 -10 -25z"/>
<path d="M180 556 c0 -11 9 -16 26 -16 31 0 28 23 -4 28 -15 2 -22 -2 -22 -12z"/>
</g>
</svg>
